#!OML:ASF F:\VICON\USERDATA\INSTALL\rory3\rory3.ASF
:FULLY-SPECIFIED
:DEGREES
54
root -6.035574890675504 17.902296676211577 1.6952320389695017 1.8799550848354016 61.297749529888264 -16.771237072045665
lfemur -23.869055795495157 24.768392015207247 -2.3322180182489523
ltibia 34.222114158040284
lfoot -3.985236827557916 9.596712569792155
ltoes -19.919528353304365
rfemur -36.60475679080923 6.949535457624941 21.178102145112366
rtibia 27.496649677953716
rfoot -7.000123942235223 7.584115551630836
rtoes 6.82875249733242
lowerback 5.340453206707302 -8.575312333210446 -9.349886896310496
upperback 1.8742915362483181 -11.718848723830046 -0.656622761700334
thorax 1.182115236489586 -6.054245254456465 5.228828191942738
lowerneck -8.865120953174129 17.72643057880149 3.0333265898245134
upperneck 16.531321277946425 26.365139072402368 -12.015450993151884
head 8.869902605079496 11.611128092794306 -1.5565261875036585
lclavicle -5.256767322394234e-15 -1.0348828949417653e-14
lhumerus 106.71776481592448 -47.42015927531452 43.037938234152534
lradius 30.937084812052802
lwrist 4.530406795088933
lhand -13.322842918220141 2.8215090117907167
lfingers 7.125020000000001
lthumb -167.22585503369828 49.93988021076997
rclavicle -5.256767322394228e-15 -1.0348828949417654e-14
rhumerus 30.77349255671047 -19.376329742357097 -65.58029995980466
rradius 98.55822949339574
rwrist -16.393750125910287
rhand -61.20961800542914 21.762727508592086
rfingers 7.125020000000001
rthumb -33.303399073295886 -5.583692262631028
55
root -6.070077027540871 17.903218417627574 1.4477363219476678 -8.962770208320862 66.49668506365575 -28.26476276887314
lfemur -27.429379710912734 23.62886057119019 -4.092599815687602
ltibia 34.10054342221044
lfoot -4.734423697490357 7.850573506802602
ltoes -19.13103912278605
rfemur -37.13826830979598 4.840717925257632 19.875237399932058
rtibia 27.793828728048357
rfoot -7.572848654641331 2.749931769228466
rtoes 1.332876777112837
lowerback 5.165740153854463 -8.789588689148827 -8.09836100554239
upperback 2.4914420470533694 -11.93936313647697 0.2516075138778273
thorax 1.8923565613070914 -6.210764774209521 5.3712348957920035
lowerneck -9.8137510293834 16.687185878942653 3.722365949722554
upperneck 17.550662556741464 25.052617394056742 -12.27873095938024
head 9.337535566519897 10.906866688462385 -1.7997376167767172
lclavicle -5.447655508495096e-15 -1.0526305890678953e-14
lhumerus 103.01661138213089 -49.63890524872908 45.55651088796504
lradius 29.473163002464517
lwrist 3.8501402943698206
lhand -13.066819307683293 3.8533518317932156
lfingers 7.125020000000001
lthumb -166.97597169832568 50.01795467578977
rclavicle -5.447655508495093e-15 -1.0526305890678953e-14
rhumerus 28.158661059246413 -18.594539830792552 -67.36494000218916
rradius 97.54508057060565
rwrist -19.227526853221622
rhand -62.244464869926894 21.19274125855388
rfingers 7.125020000000001
rthumb -34.293672448693364 -6.074144841002382
56
root -6.097809697394609 17.90931502722077 1.212786358706391 -23.76360160894731 71.42569362760057 -43.57553215584564
lfemur -30.62182789856909 22.073373374653347 -5.877075384595166
ltibia 33.756668987981314
lfoot -5.192493118101762 5.71498734097929
ltoes -18.36700047916582
rfemur -37.047646094802474 2.8117855380966223 18.394388620411036
rtibia 28.326439776262177
rfoot -8.002937175051748 -2.346738468976466
rtoes -3.4121373993261876
lowerback 4.764732226068659 -8.93547879866835 -6.574416761556684
upperback 3.1664451413640364 -12.081671472020453 1.3228632974556995
thorax 2.7862441953376997 -6.323508583208154 5.541148936623022
lowerneck -10.744834836364326 15.478244457288532 4.380463868853152
upperneck 18.793920737698098 23.54564752626273 -12.506862068787827
head 9.846772276627565 10.11125821143589 -2.0970047539631365
lclavicle -4.974030696679677e-15 -1.0134777861885598e-14
lhumerus 98.41394461027537 -51.73831062862908 49.03431842772546
lradius 28.117490405616742
lwrist 2.9854754951941445
lhand -12.750033882372257 5.495230302426936
lfingers 7.125020000000001
lthumb -166.66825186609745 53.00391910185593
rclavicle -4.97403069667968e-15 -1.0134777861885597e-14
rhumerus 25.129876061453885 -17.469112674981524 -69.00736613037856
rradius 96.3366274367377
rwrist -22.47670241598295
rhand -63.36068512996161 20.92003779722151
rfingers 7.125020000000001
rthumb -35.36167636299629 -6.251890344792175
57
root -6.119996428434265 17.91932209527909 0.9540889938977475 -43.807593064395576 75.19685612960254 -63.876058004173
lfemur -33.296101819077045 19.818773807452885 -7.8145009788970725
ltibia 32.97724411964237
lfoot -5.51558641130929 2.7653629063341114
ltoes -17.873566079390375
rfemur -36.53508158243068 0.8084976253801819 16.622413250466813
rtibia 29.01575813645237
rfoot -8.528803828036565 -7.9952696604093685
rtoes -7.206115693809796
lowerback 4.012334842114388 -9.15009466485018 -4.987626027532633
upperback 3.7481309181439144 -12.314646477885265 2.4626729421491107
thorax 3.780039213841243 -6.462166196219593 5.676870384420336
lowerneck -11.700721449167258 13.82328874290601 4.822392123674879
upperneck 20.112733822760646 21.459999946996355 -12.771430293255431
head 10.316595536189384 9.048362172532551 -2.442581936890701
lclavicle -5.039741112437225e-15 -1.0203046546926927e-14
lhumerus 92.2695878246741 -54.11383374058343 53.233403123112225
lradius 26.567992847517775
lwrist 1.7591413544498131
lhand -12.398745484649286 7.669979362626069
lfingers 7.125020000000001
lthumb -166.32781318791822 53.8949456332059
rclavicle -5.0397411124372236e-15 -1.0203046546926928e-14
rhumerus 21.04523114013848 -16.19175168667503 -70.80282153945174
rradius 94.43331462406911
rwrist -26.782296285555855
rhand -64.64632310864393 20.533411964867838
rfingers 7.125020000000001
rthumb -36.59359610371804 -6.556479110279581
